<svg version="1.1" id="Layer_1" xmlns="http://www.w3.org/2000/svg" xmlns:xlink="http://www.w3.org/1999/xlink" x="0px" y="0px"
	 width="100%" viewBox="0 0 225 225" enable-background="new 0 0 225 225" xml:space="preserve">
<path fill="#070507" opacity="1.000000" stroke="none" 
	d="
M1.000000,69.000000 
	C1.000000,63.645069 1.000000,58.290142 1.407307,52.301033 
	C1.543076,46.444569 1.271538,41.222282 1.000000,36.000000 
	C1.000000,31.975456 1.000000,27.950911 1.312538,23.303066 
	C4.233376,15.998772 7.556125,13.564553 14.777689,13.554866 
	C49.723679,13.507987 84.669815,13.500118 119.615784,13.553921 
	C129.453415,13.569066 134.358826,19.259026 133.600204,29.209166 
	C133.160614,34.974686 132.958481,40.758312 132.626450,46.964470 
	C134.534637,46.964470 136.164841,46.964466 137.795044,46.964470 
	C162.257278,46.964481 186.721497,47.136307 211.180466,46.853905 
	C218.016846,46.774971 223.018494,48.710918 226.000000,55.000000 
	C226.000000,58.030594 226.000000,61.061188 225.626236,64.690781 
	C222.210159,88.363220 219.132614,111.432076 216.135880,134.511429 
	C213.395462,155.616669 210.581528,176.714493 208.115723,197.852417 
	C206.794312,209.180222 202.532837,213.445755 191.135956,213.450058 
	C160.147324,213.461777 129.158691,213.454178 98.170059,213.454071 
	C90.672806,213.454041 83.173607,213.562012 75.678772,213.427353 
	C64.777672,213.231506 58.081318,206.377258 57.975052,195.502838 
	C57.940865,192.004440 57.994354,188.505249 57.964188,185.006790 
	C57.903809,178.004303 54.627457,174.816864 47.480225,174.763046 
	C39.943466,174.706299 36.358265,177.888901 36.219761,184.856262 
	C36.120449,189.852310 36.366665,194.868500 36.003315,199.842438 
	C35.600254,205.360031 33.722317,210.625168 28.227993,212.828751 
	C15.385255,217.979507 5.245711,210.664337 4.957937,196.834091 
	C4.091615,155.199203 3.042901,113.568100 2.013252,71.936806 
	C1.988849,70.950119 1.351470,69.978600 1.000000,69.000000 
M170.972397,139.470901 
	C171.305328,131.984482 171.713440,124.500435 171.948654,117.010956 
	C172.156479,110.393303 171.004700,109.322929 164.175446,109.313011 
	C154.845886,109.299454 145.516006,109.353973 136.186783,109.297348 
	C126.113815,109.236214 121.427460,104.580688 121.931015,94.550087 
	C123.007767,73.101448 124.284782,51.662197 125.605125,30.226822 
	C126.065315,22.755751 124.937775,21.314705 117.504410,21.313004 
	C84.184479,21.305380 50.864552,21.307156 17.544622,21.311804 
	C9.985584,21.312859 8.919849,22.374498 9.097075,29.989538 
	C10.399249,85.941437 11.724334,141.892807 13.029869,197.844635 
	C13.172028,203.937149 14.384713,205.462997 19.460207,205.688934 
	C26.141077,205.986328 27.618362,204.913666 28.051491,198.542633 
	C28.389822,193.565948 28.137663,188.552002 28.349655,183.563202 
	C28.732113,174.562866 34.920460,167.671738 43.134354,166.894531 
	C55.715675,165.704071 63.741364,170.353210 65.636589,180.541611 
	C66.416916,184.736511 65.994934,189.165695 66.016830,193.488846 
	C66.063652,202.735535 68.962624,205.679626 78.256332,205.685623 
	C100.747276,205.700119 123.238235,205.690979 145.729187,205.689911 
	C151.226944,205.689651 156.726074,205.757050 162.222000,205.655228 
	C165.928375,205.586563 167.882935,203.883255 168.057007,199.819550 
	C168.904999,180.022095 169.955368,160.233292 170.972397,139.470901 
M216.003876,72.608078 
	C216.514893,68.988731 216.970886,65.360558 217.549332,61.752010 
	C218.505478,55.787189 217.911118,55.021374 211.858627,55.018745 
	C186.548004,55.007759 161.237396,55.009762 135.926788,55.026947 
	C134.658752,55.027809 133.390869,55.215317 132.032440,55.323097 
	C131.316147,68.451828 130.594955,81.238678 129.930771,94.028488 
	C129.607040,100.262703 130.626373,101.346962 136.894592,101.378555 
	C146.718857,101.428070 156.545761,101.264343 166.367432,101.431931 
	C175.386444,101.585831 180.072021,106.573242 180.024704,115.557701 
	C180.012421,117.887970 179.943665,120.219765 179.829910,122.547394 
	C178.482498,150.116150 177.121582,177.684250 175.742798,205.687485 
	C181.360550,205.687485 186.831375,205.742538 192.300568,205.671692 
	C197.565430,205.603531 199.328232,203.843872 199.964966,198.594528 
	C201.345734,187.210892 202.766174,175.831848 204.228638,164.458405 
	C208.127579,134.136307 212.057327,103.818169 216.003876,72.608078 
z"/>
<path fill="#FCFCFC" opacity="1.000000" stroke="none" 
	d="
M226.000000,54.531342 
	C223.018494,48.710918 218.016846,46.774971 211.180466,46.853905 
	C186.721497,47.136307 162.257278,46.964481 137.795044,46.964470 
	C136.164841,46.964466 134.534637,46.964470 132.626450,46.964470 
	C132.958481,40.758312 133.160614,34.974686 133.600204,29.209166 
	C134.358826,19.259026 129.453415,13.569066 119.615784,13.553921 
	C84.669815,13.500118 49.723679,13.507987 14.777689,13.554866 
	C7.556125,13.564553 4.233376,15.998772 1.312538,22.839882 
	C1.000000,15.677341 1.000000,8.354680 1.000000,1.016010 
	C75.880157,1.016010 150.760330,1.016010 226.000000,1.016010 
	C226.000000,18.685938 226.000000,36.374310 226.000000,54.531342 
z"/>
<path fill="#FAFAFA" opacity="1.000000" stroke="none" 
	d="
M1.000000,69.468658 
	C1.351470,69.978600 1.988849,70.950119 2.013252,71.936806 
	C3.042901,113.568100 4.091615,155.199203 4.957937,196.834091 
	C5.245711,210.664337 15.385255,217.979507 28.227993,212.828751 
	C33.722317,210.625168 35.600254,205.360031 36.003315,199.842438 
	C36.366665,194.868500 36.120449,189.852310 36.219761,184.856262 
	C36.358265,177.888901 39.943466,174.706299 47.480225,174.763046 
	C54.627457,174.816864 57.903809,178.004303 57.964188,185.006790 
	C57.994354,188.505249 57.940865,192.004440 57.975052,195.502838 
	C58.081318,206.377258 64.777672,213.231506 75.678772,213.427353 
	C83.173607,213.562012 90.672806,213.454041 98.170059,213.454071 
	C129.158691,213.454178 160.147324,213.461777 191.135956,213.450058 
	C202.532837,213.445755 206.794312,209.180222 208.115723,197.852417 
	C210.581528,176.714493 213.395462,155.616669 216.135880,134.511429 
	C219.132614,111.432076 222.210159,88.363220 225.626236,65.144897 
	C226.000000,118.623390 226.000000,172.246780 226.000000,225.935089 
	C151.103790,225.935089 76.207520,225.935089 1.000000,225.935089 
	C1.000000,173.979523 1.000000,121.958420 1.000000,69.468658 
z"/>
<path fill="#959595" opacity="1.000000" stroke="none" 
	d="
M1.000000,36.466862 
	C1.271538,41.222282 1.543076,46.444569 1.407307,51.833427 
	C1.000000,46.977909 1.000000,41.955814 1.000000,36.466862 
z"/>
<path fill="#FAFAFA" opacity="1.000000" stroke="none" 
	d="
M170.953262,139.956177 
	C169.955368,160.233292 168.904999,180.022095 168.057007,199.819550 
	C167.882935,203.883255 165.928375,205.586563 162.222000,205.655228 
	C156.726074,205.757050 151.226944,205.689651 145.729187,205.689911 
	C123.238235,205.690979 100.747276,205.700119 78.256332,205.685623 
	C68.962624,205.679626 66.063652,202.735535 66.016830,193.488846 
	C65.994934,189.165695 66.416916,184.736511 65.636589,180.541611 
	C63.741364,170.353210 55.715675,165.704071 43.134354,166.894531 
	C34.920460,167.671738 28.732113,174.562866 28.349655,183.563202 
	C28.137663,188.552002 28.389822,193.565948 28.051491,198.542633 
	C27.618362,204.913666 26.141077,205.986328 19.460207,205.688934 
	C14.384713,205.462997 13.172028,203.937149 13.029869,197.844635 
	C11.724334,141.892807 10.399249,85.941437 9.097075,29.989538 
	C8.919849,22.374498 9.985584,21.312859 17.544622,21.311804 
	C50.864552,21.307156 84.184479,21.305380 117.504410,21.313004 
	C124.937775,21.314705 126.065315,22.755751 125.605125,30.226822 
	C124.284782,51.662197 123.007767,73.101448 121.931015,94.550087 
	C121.427460,104.580688 126.113815,109.236214 136.186783,109.297348 
	C145.516006,109.353973 154.845886,109.299454 164.175446,109.313011 
	C171.004700,109.322929 172.156479,110.393303 171.948654,117.010956 
	C171.713440,124.500435 171.305328,131.984482 170.953262,139.956177 
M50.438477,77.788422 
	C45.952236,77.789734 41.465969,77.782150 36.979763,77.794914 
	C32.695862,77.807106 30.458794,80.205322 30.347982,84.250572 
	C30.156969,91.223701 30.212978,98.207680 30.340763,105.183899 
	C30.416208,109.302628 32.813297,111.773979 36.854568,111.917534 
	C43.492134,112.153297 50.150158,112.158127 56.787598,111.922859 
	C60.751278,111.782364 63.303917,109.617302 63.316750,105.303795 
	C63.337509,98.325378 63.366554,91.346458 63.304573,84.368530 
	C63.264683,79.877640 60.830135,77.749222 56.395279,77.787971 
	C54.733841,77.802490 53.072155,77.789093 50.438477,77.788422 
M30.356506,126.286522 
	C30.332312,133.279770 30.219135,140.274216 30.312746,147.265884 
	C30.384565,152.629837 32.638546,154.854446 37.920414,154.926071 
	C44.080742,155.009628 50.243851,155.003876 56.404297,154.924362 
	C60.739883,154.868423 63.288544,152.734940 63.316391,148.212494 
	C63.359455,141.218887 63.381676,134.224030 63.295498,127.231155 
	C63.243938,123.047401 61.058369,120.781212 56.780334,120.770576 
	C50.285858,120.754440 43.790977,120.804321 37.296925,120.749123 
	C33.881195,120.720093 31.543518,122.067139 30.356506,126.286522 
M108.140419,84.892998 
	C108.175339,79.877510 105.578568,77.708229 100.681145,77.774872 
	C94.529846,77.858574 88.375397,77.722229 82.224480,77.819199 
	C77.362373,77.895851 75.133339,79.979118 75.024956,84.757256 
	C74.874176,91.405113 74.916222,98.059975 75.012024,104.709885 
	C75.078201,109.303139 77.656555,111.835899 82.160194,111.964005 
	C88.473717,112.143585 94.801018,112.157066 101.113380,111.956818 
	C106.046799,111.800316 108.081390,109.419258 108.128723,104.271713 
	C108.185287,98.119797 108.142258,91.966957 108.140419,84.892998 
M80.992790,120.801949 
	C76.916260,121.153915 75.112442,123.731522 75.028198,127.467514 
	C74.874367,134.290451 74.866463,141.122116 75.027473,147.944717 
	C75.128342,152.218674 77.474068,154.818817 81.878433,154.905106 
	C88.369354,155.032257 94.866783,155.042130 101.357216,154.903656 
	C105.662354,154.811783 108.143646,152.580612 108.144707,148.058075 
	C108.146278,141.398178 108.205315,134.737564 108.127106,128.078598 
	C108.066368,122.908371 106.015007,120.847061 100.885376,120.784988 
	C94.559395,120.708443 88.231781,120.768181 80.992790,120.801949 
M154.064529,146.193237 
	C154.064301,140.201920 154.115021,134.210037 154.048401,128.219452 
	C153.990784,123.039886 151.931931,120.873764 146.904510,120.801285 
	C140.581650,120.710114 134.255219,120.701424 127.932747,120.804939 
	C123.180885,120.882736 121.045982,123.080643 120.981697,127.908928 
	C120.895279,134.398376 120.901657,140.890533 120.979019,147.380203 
	C121.040886,152.569412 123.385216,154.853058 128.673691,154.917221 
	C134.497726,154.987885 140.323746,154.979828 146.148026,154.920029 
	C151.761276,154.862396 153.634811,152.962601 154.064529,146.193237 
M74.991364,171.993530 
	C74.991264,178.149170 74.957062,184.305069 75.000587,190.460403 
	C75.044594,196.683624 77.259384,198.967941 83.280930,199.011765 
	C89.103523,199.054153 94.927719,199.089478 100.749275,199.000793 
	C105.908272,198.922180 108.041779,196.834259 108.112091,191.765106 
	C108.202057,185.277969 108.191826,178.787979 108.116524,172.300476 
	C108.053719,166.890640 106.012848,164.948044 100.465439,164.903046 
	C94.642914,164.855820 88.815102,165.034988 82.998276,164.846909 
	C78.427109,164.699081 75.726974,166.536957 74.991364,171.993530 
M121.706924,195.355057 
	C123.542854,196.571259 125.320267,198.716431 127.225250,198.836456 
	C134.020660,199.264526 140.864380,199.160583 147.679779,198.943314 
	C151.458374,198.822861 153.923157,196.606140 153.998718,192.658432 
	C154.135590,185.506027 154.115326,178.347839 154.004013,171.194519 
	C153.942612,167.247955 151.688675,165.019791 147.765289,164.946487 
	C140.945312,164.819046 134.120209,164.838577 127.299316,164.937897 
	C123.319160,164.995850 121.065605,167.313248 121.025795,171.188766 
	C120.945580,178.998276 121.165924,186.810837 121.706924,195.355057 
M38.209591,51.061077 
	C38.687164,53.407909 39.052399,55.786797 39.707676,58.082912 
	C39.916458,58.814491 40.895744,59.326183 41.522461,59.938488 
	C42.081837,59.231606 43.111866,58.534466 43.126732,57.816311 
	C43.255093,51.615673 43.200584,45.411247 43.200584,38.937408 
	C36.885822,39.797741 41.247707,45.133297 38.328598,47.452850 
	C36.363407,47.452850 33.929573,47.452850 31.079889,47.452850 
	C31.079889,45.882557 31.283171,44.224701 31.015276,42.646847 
	C30.802704,41.394848 30.013142,40.240818 29.479769,39.043289 
	C28.703695,40.276405 27.366627,41.461483 27.256151,42.751595 
	C26.917191,46.709904 26.944788,50.711060 27.043911,54.690231 
	C27.088657,56.486504 27.639889,58.270153 27.961330,60.059532 
	C28.622118,60.094017 29.282907,60.128498 29.943695,60.162983 
	C30.468018,57.232700 30.992342,54.302418 31.579939,51.018517 
	C33.369553,51.018517 35.328922,51.018517 38.209591,51.061077 
M61.000763,41.606548 
	C57.314541,38.386314 53.453331,37.580360 49.417011,40.927387 
	C45.400192,44.258244 44.226833,50.770828 46.720543,55.392445 
	C49.974304,61.422680 57.622280,61.759495 61.266296,55.914783 
	C64.031441,51.479713 63.959328,46.833504 61.000763,41.606548 
M88.240593,43.003590 
	C91.067062,42.433277 93.893532,41.862968 96.720001,41.292656 
	C96.628716,40.497349 96.537437,39.702038 96.446152,38.906731 
	C91.989670,39.160107 87.533180,39.413486 83.932167,39.618225 
	C83.932167,45.322971 83.626205,49.938995 84.078011,54.479614 
	C84.267075,56.379662 85.815742,59.418022 87.178925,59.679020 
	C90.690598,60.351368 94.782509,60.862591 97.510887,57.761868 
	C97.411964,57.215908 97.313042,56.669945 97.214119,56.123981 
	C94.281937,56.297207 91.349747,56.470428 88.141586,56.659954 
	C88.141586,54.356827 88.141586,52.633095 88.141586,51.127213 
	C91.063713,50.414207 93.637558,49.786186 96.211403,49.158165 
	C96.095634,48.578995 95.979858,47.999825 95.864082,47.420654 
	C93.361244,47.420654 90.858406,47.420654 87.937012,47.420654 
	C87.937012,46.122017 87.937012,45.003830 88.240593,43.003590 
M79.124023,38.989361 
	C74.499321,39.914497 69.302795,38.074135 65.183220,42.416515 
	C67.023422,42.690437 68.863632,42.964359 70.723206,43.241165 
	C70.994263,48.716900 71.265228,54.190849 71.536201,59.664799 
	C72.269623,59.706497 73.003052,59.748196 73.736473,59.789898 
	C76.852448,54.649059 73.741364,48.422871 75.468727,43.040005 
	C81.271637,42.254547 81.271637,42.254547 79.124023,38.989361 
M99.224915,46.692055 
	C99.190338,48.515568 98.833733,50.406422 99.197632,52.146606 
	C99.726791,54.677090 100.256271,58.773132 101.708916,59.223503 
	C104.868805,60.203175 108.612473,59.299908 112.117523,59.166283 
	C112.116440,58.299706 112.115356,57.433125 112.114273,56.566544 
	C109.290901,56.411350 106.467529,56.256157 103.192497,56.076138 
	C103.192497,52.696751 103.376175,49.412556 103.130997,46.160694 
	C102.953407,43.805210 102.207161,41.492596 101.714493,39.160866 
	C100.894028,41.366680 100.073563,43.572495 99.224915,46.692055 
z"/>
<path fill="#FBFBFB" opacity="1.000000" stroke="none" 
	d="
M215.989365,73.053268 
	C212.057327,103.818169 208.127579,134.136307 204.228638,164.458405 
	C202.766174,175.831848 201.345734,187.210892 199.964966,198.594528 
	C199.328232,203.843872 197.565430,205.603531 192.300568,205.671692 
	C186.831375,205.742538 181.360550,205.687485 175.742798,205.687485 
	C177.121582,177.684250 178.482498,150.116150 179.829910,122.547394 
	C179.943665,120.219765 180.012421,117.887970 180.024704,115.557701 
	C180.072021,106.573242 175.386444,101.585831 166.367432,101.431931 
	C156.545761,101.264343 146.718857,101.428070 136.894592,101.378555 
	C130.626373,101.346962 129.607040,100.262703 129.930771,94.028488 
	C130.594955,81.238678 131.316147,68.451828 132.032440,55.323097 
	C133.390869,55.215317 134.658752,55.027809 135.926788,55.026947 
	C161.237396,55.009762 186.548004,55.007759 211.858627,55.018745 
	C217.911118,55.021374 218.505478,55.787189 217.549332,61.752010 
	C216.970886,65.360558 216.514893,68.988731 215.989365,73.053268 
M186.794983,58.900532 
	C180.024139,59.059711 178.150696,60.873028 178.119308,67.405334 
	C178.089752,73.558182 178.009262,79.713638 178.148087,85.863510 
	C178.254181,90.562523 180.620316,92.943115 185.226547,93.031242 
	C191.543503,93.152084 197.866272,93.150864 204.183243,93.029877 
	C208.978088,92.938042 211.086258,90.762955 211.151764,85.931351 
	C211.241959,79.280693 211.241531,72.626976 211.151535,65.976318 
	C211.085968,61.130375 208.970261,59.000561 204.192001,58.921932 
	C198.705688,58.831650 193.216751,58.900696 186.794983,58.900532 
M159.241730,93.056160 
	C165.803848,92.994438 168.368988,91.506760 168.575729,86.702057 
	C168.882568,79.571922 168.823395,72.413101 168.586731,65.277557 
	C168.453232,61.252136 166.113281,58.902786 161.845688,58.907650 
	C155.366165,58.915035 148.886368,58.874294 142.407196,58.921535 
	C137.979965,58.953808 135.677338,61.219406 135.671829,65.694160 
	C135.663467,72.505959 135.575745,79.319527 135.702179,86.128983 
	C135.789017,90.805840 138.073898,92.951309 142.851410,93.035065 
	C148.000229,93.125328 153.151855,93.055923 159.241730,93.056160 
z"/>
<path fill="#0F0E0F" opacity="1.000000" stroke="none" 
	d="
M50.924530,77.788422 
	C53.072155,77.789093 54.733841,77.802490 56.395279,77.787971 
	C60.830135,77.749222 63.264683,79.877640 63.304573,84.368530 
	C63.366554,91.346458 63.337509,98.325378 63.316750,105.303795 
	C63.303917,109.617302 60.751278,111.782364 56.787598,111.922859 
	C50.150158,112.158127 43.492134,112.153297 36.854568,111.917534 
	C32.813297,111.773979 30.416208,109.302628 30.340763,105.183899 
	C30.212978,98.207680 30.156969,91.223701 30.347982,84.250572 
	C30.458794,80.205322 32.695862,77.807106 36.979763,77.794914 
	C41.465969,77.782150 45.952236,77.789734 50.924530,77.788422 
M46.516113,81.665382 
	C44.022068,81.665573 41.517246,81.812973 39.036510,81.631363 
	C35.341324,81.360832 34.006695,82.900154 34.146950,86.579277 
	C34.368477,92.390297 34.247189,98.216339 34.188431,104.035194 
	C34.161514,106.700706 35.190578,108.028679 38.006863,107.987846 
	C43.825081,107.903465 49.647774,107.863472 55.463863,108.003304 
	C58.544994,108.077393 59.631424,106.673286 59.572643,103.809242 
	C59.504421,100.485268 59.558918,97.158775 59.558998,93.833382 
	C59.559292,81.665443 59.559113,81.665443 46.516113,81.665382 
z"/>
<path fill="#100F11" opacity="1.000000" stroke="none" 
	d="
M30.470161,125.872971 
	C31.543518,122.067139 33.881195,120.720093 37.296925,120.749123 
	C43.790977,120.804321 50.285858,120.754440 56.780334,120.770576 
	C61.058369,120.781212 63.243938,123.047401 63.295498,127.231155 
	C63.381676,134.224030 63.359455,141.218887 63.316391,148.212494 
	C63.288544,152.734940 60.739883,154.868423 56.404297,154.924362 
	C50.243851,155.003876 44.080742,155.009628 37.920414,154.926071 
	C32.638546,154.854446 30.384565,152.629837 30.312746,147.265884 
	C30.219135,140.274216 30.332312,133.279770 30.470161,125.872971 
M51.452068,124.671600 
	C47.126434,124.672356 42.797337,124.779541 38.476292,124.639069 
	C35.211845,124.532944 34.073635,125.930168 34.163265,129.119141 
	C34.326809,134.937515 34.303883,140.765915 34.172169,146.585907 
	C34.100384,149.757767 35.231812,151.098114 38.540337,150.981339 
	C44.023750,150.787811 49.526234,150.756485 55.006615,150.988739 
	C58.622475,151.141983 59.685398,149.567642 59.589718,146.256500 
	C59.450413,141.435776 59.556194,136.608032 59.553909,131.783279 
	C59.550556,124.688873 59.549221,124.688873 51.452068,124.671600 
z"/>
<path fill="#0D0C0D" opacity="1.000000" stroke="none" 
	d="
M108.141388,85.353760 
	C108.142258,91.966957 108.185287,98.119797 108.128723,104.271713 
	C108.081390,109.419258 106.046799,111.800316 101.113380,111.956818 
	C94.801018,112.157066 88.473717,112.143585 82.160194,111.964005 
	C77.656555,111.835899 75.078201,109.303139 75.012024,104.709885 
	C74.916222,98.059975 74.874176,91.405113 75.024956,84.757256 
	C75.133339,79.979118 77.362373,77.895851 82.224480,77.819199 
	C88.375397,77.722229 94.529846,77.858574 100.681145,77.774872 
	C105.578568,77.708229 108.175339,79.877510 108.141388,85.353760 
M85.725586,107.956741 
	C90.376457,107.956947 95.035492,107.788124 99.675552,108.012222 
	C103.224426,108.183617 104.358459,106.727692 104.255722,103.337563 
	C104.079697,97.529297 104.111076,91.709625 104.246811,85.899208 
	C104.314819,82.988068 103.334785,81.596268 100.275398,81.650131 
	C94.463608,81.752457 88.648582,81.706276 82.835228,81.669617 
	C80.148445,81.652679 78.960205,82.771248 79.027542,85.579033 
	C79.162888,91.223259 79.344902,96.891037 78.980301,102.514900 
	C78.681938,107.117065 80.601768,108.534386 85.725586,107.956741 
z"/>
<path fill="#0F0E0F" opacity="1.000000" stroke="none" 
	d="
M81.448830,120.785492 
	C88.231781,120.768181 94.559395,120.708443 100.885376,120.784988 
	C106.015007,120.847061 108.066368,122.908371 108.127106,128.078598 
	C108.205315,134.737564 108.146278,141.398178 108.144707,148.058075 
	C108.143646,152.580612 105.662354,154.811783 101.357216,154.903656 
	C94.866783,155.042130 88.369354,155.032257 81.878433,154.905106 
	C77.474068,154.818817 75.128342,152.218674 75.027473,147.944717 
	C74.866463,141.122116 74.874367,134.290451 75.028198,127.467514 
	C75.112442,123.731522 76.916260,121.153915 81.448830,120.785492 
M103.836830,125.841858 
	C96.153984,125.545937 88.471916,125.182388 80.786682,125.094185 
	C80.227158,125.087761 79.176781,127.067162 79.149933,128.143143 
	C78.992485,134.454803 79.136894,140.773331 79.040665,147.087448 
	C78.998734,149.839005 80.080170,150.999191 82.864807,150.951096 
	C88.680038,150.850647 94.501724,150.798691 100.313789,150.967102 
	C103.527161,151.060211 104.282410,149.514847 104.230331,146.708557 
	C104.107010,140.063873 104.130234,133.416489 103.836830,125.841858 
z"/>
<path fill="#0B0A0B" opacity="1.000000" stroke="none" 
	d="
M154.064484,146.652588 
	C153.634811,152.962601 151.761276,154.862396 146.148026,154.920029 
	C140.323746,154.979828 134.497726,154.987885 128.673691,154.917221 
	C123.385216,154.853058 121.040886,152.569412 120.979019,147.380203 
	C120.901657,140.890533 120.895279,134.398376 120.981697,127.908928 
	C121.045982,123.080643 123.180885,120.882736 127.932747,120.804939 
	C134.255219,120.701424 140.581650,120.710114 146.904510,120.801285 
	C151.931931,120.873764 153.990784,123.039886 154.048401,128.219452 
	C154.115021,134.210037 154.064301,140.201920 154.064484,146.652588 
M125.020126,148.087280 
	C126.257584,149.034515 127.456779,150.734543 128.739075,150.799713 
	C134.544891,151.094803 140.375916,150.844742 146.194305,150.964249 
	C148.941986,151.020706 150.091553,150.061844 150.027252,147.209167 
	C149.888580,141.058823 149.848312,134.898865 150.042465,128.751511 
	C150.139297,125.685951 149.005386,124.579414 146.026596,124.639946 
	C140.374390,124.754799 134.715042,124.786835 129.064819,124.630608 
	C125.664474,124.536591 124.864395,126.103294 124.961182,129.193436 
	C125.148529,135.174744 125.016052,141.166046 125.020126,148.087280 
z"/>
<path fill="#0A090A" opacity="1.000000" stroke="none" 
	d="
M74.993729,171.547424 
	C75.726974,166.536957 78.427109,164.699081 82.998276,164.846909 
	C88.815102,165.034988 94.642914,164.855820 100.465439,164.903046 
	C106.012848,164.948044 108.053719,166.890640 108.116524,172.300476 
	C108.191826,178.787979 108.202057,185.277969 108.112091,191.765106 
	C108.041779,196.834259 105.908272,198.922180 100.749275,199.000793 
	C94.927719,199.089478 89.103523,199.054153 83.280930,199.011765 
	C77.259384,198.967941 75.044594,196.683624 75.000587,190.460403 
	C74.957062,184.305069 74.991264,178.149170 74.993729,171.547424 
M89.549484,194.982574 
	C93.035942,194.982574 96.528931,194.850769 100.006844,195.023148 
	C102.930634,195.168091 104.307388,194.190155 104.248833,191.097427 
	C104.132568,184.956818 104.152870,178.811569 104.242149,172.670059 
	C104.281754,169.945190 103.262115,168.796677 100.439224,168.863998 
	C94.631760,169.002487 88.815842,169.013550 83.009071,168.860931 
	C79.928505,168.779968 78.896378,170.030640 79.018326,173.002426 
	C79.188370,177.145996 79.031601,181.302017 79.066658,185.452271 
	C79.159019,196.386230 77.724892,194.864014 89.549484,194.982574 
z"/>
<path fill="#060506" opacity="1.000000" stroke="none" 
	d="
M121.484604,194.988602 
	C121.165924,186.810837 120.945580,178.998276 121.025795,171.188766 
	C121.065605,167.313248 123.319160,164.995850 127.299316,164.937897 
	C134.120209,164.838577 140.945312,164.819046 147.765289,164.946487 
	C151.688675,165.019791 153.942612,167.247955 154.004013,171.194519 
	C154.115326,178.347839 154.135590,185.506027 153.998718,192.658432 
	C153.923157,196.606140 151.458374,198.822861 147.679779,198.943314 
	C140.864380,199.160583 134.020660,199.264526 127.225250,198.836456 
	C125.320267,198.716431 123.542854,196.571259 121.484604,194.988602 
M129.724670,168.897278 
	C126.005646,168.346939 124.750603,169.918427 124.935844,173.648315 
	C125.215645,179.282394 125.139114,184.944839 124.957535,190.586975 
	C124.857040,193.709869 125.720200,195.168930 129.128952,195.044464 
	C134.769409,194.838501 140.426849,194.861679 146.069275,195.038696 
	C149.178909,195.136261 150.121368,193.896255 150.040314,190.925552 
	C149.877289,184.949799 149.810181,178.958817 150.061066,172.989151 
	C150.207764,169.498886 148.691910,168.750854 145.630280,168.852753 
	C140.652298,169.018463 135.664749,168.897278 129.724670,168.897278 
z"/>
<path fill="#0D0C0D" opacity="1.000000" stroke="none" 
	d="
M37.748943,51.039795 
	C35.328922,51.018517 33.369553,51.018517 31.579939,51.018517 
	C30.992342,54.302418 30.468018,57.232700 29.943695,60.162983 
	C29.282907,60.128498 28.622118,60.094017 27.961330,60.059532 
	C27.639889,58.270153 27.088657,56.486504 27.043911,54.690231 
	C26.944788,50.711060 26.917191,46.709904 27.256151,42.751595 
	C27.366627,41.461483 28.703695,40.276405 29.479767,39.043289 
	C30.013142,40.240818 30.802704,41.394848 31.015276,42.646847 
	C31.283171,44.224701 31.079889,45.882557 31.079889,47.452850 
	C33.929573,47.452850 36.363407,47.452850 38.328598,47.452850 
	C41.247707,45.133297 36.885822,39.797741 43.200584,38.937408 
	C43.200584,45.411247 43.255093,51.615673 43.126732,57.816311 
	C43.111866,58.534466 42.081837,59.231606 41.522461,59.938488 
	C40.895744,59.326183 39.916458,58.814491 39.707676,58.082912 
	C39.052399,55.786797 38.687164,53.407909 37.748943,51.039795 
z"/>
<path fill="#0E0D0E" opacity="1.000000" stroke="none" 
	d="
M61.265694,41.912910 
	C63.959328,46.833504 64.031441,51.479713 61.266296,55.914783 
	C57.622280,61.759495 49.974304,61.422680 46.720543,55.392445 
	C44.226833,50.770828 45.400192,44.258244 49.417011,40.927387 
	C53.453331,37.580360 57.314541,38.386314 61.265694,41.912910 
M53.650238,56.610695 
	C58.433598,56.367905 59.627934,53.026791 59.769482,49.130413 
	C59.882843,46.009899 59.065319,42.701904 55.435944,42.411419 
	C53.668697,42.269974 50.874111,43.840221 50.037998,45.424023 
	C48.087486,49.118805 48.140141,53.069748 52.043793,55.951271 
	C52.300240,56.140572 52.654701,56.197083 53.650238,56.610695 
z"/>
<path fill="#0E0D0E" opacity="1.000000" stroke="none" 
	d="
M88.088806,43.444618 
	C87.937012,45.003830 87.937012,46.122017 87.937012,47.420654 
	C90.858406,47.420654 93.361244,47.420654 95.864082,47.420654 
	C95.979858,47.999825 96.095634,48.578995 96.211403,49.158165 
	C93.637558,49.786186 91.063713,50.414207 88.141586,51.127213 
	C88.141586,52.633095 88.141586,54.356827 88.141586,56.659954 
	C91.349747,56.470428 94.281937,56.297207 97.214119,56.123981 
	C97.313042,56.669945 97.411964,57.215908 97.510887,57.761868 
	C94.782509,60.862591 90.690598,60.351368 87.178925,59.679020 
	C85.815742,59.418022 84.267075,56.379662 84.078011,54.479614 
	C83.626205,49.938995 83.932167,45.322971 83.932167,39.618225 
	C87.533180,39.413486 91.989670,39.160107 96.446152,38.906731 
	C96.537437,39.702038 96.628716,40.497349 96.720001,41.292656 
	C93.893532,41.862968 91.067062,42.433277 88.088806,43.444618 
z"/>
<path fill="#0E0D0E" opacity="1.000000" stroke="none" 
	d="
M79.577995,39.011177 
	C81.271637,42.254547 81.271637,42.254547 75.468803,43.040016 
	C73.741364,48.422871 76.852448,54.649059 73.736473,59.789898 
	C73.003052,59.748196 72.269623,59.706497 71.536201,59.664799 
	C71.265228,54.190849 70.994263,48.716900 70.723206,43.241165 
	C68.863632,42.964359 67.023422,42.690437 65.183220,42.416515 
	C69.302795,38.074135 74.499321,39.914497 79.577995,39.011177 
z"/>
<path fill="#171718" opacity="1.000000" stroke="none" 
	d="
M99.239006,46.235184 
	C100.073563,43.572495 100.894028,41.366680 101.714493,39.160866 
	C102.207161,41.492596 102.953407,43.805210 103.130997,46.160694 
	C103.376175,49.412556 103.192497,52.696751 103.192497,56.076138 
	C106.467529,56.256157 109.290901,56.411350 112.114273,56.566544 
	C112.115356,57.433125 112.116440,58.299706 112.117523,59.166283 
	C108.612473,59.299908 104.868805,60.203175 101.708916,59.223503 
	C100.256271,58.773132 99.726791,54.677090 99.197632,52.146606 
	C98.833733,50.406422 99.190338,48.515568 99.239006,46.235184 
z"/>
<path fill="#0E0D0E" opacity="1.000000" stroke="none" 
	d="
M187.261963,58.900536 
	C193.216751,58.900696 198.705688,58.831650 204.192001,58.921932 
	C208.970261,59.000561 211.085968,61.130375 211.151535,65.976318 
	C211.241531,72.626976 211.241959,79.280693 211.151764,85.931351 
	C211.086258,90.762955 208.978088,92.938042 204.183243,93.029877 
	C197.866272,93.150864 191.543503,93.152084 185.226547,93.031242 
	C180.620316,92.943115 178.254181,90.562523 178.148087,85.863510 
	C178.009262,79.713638 178.089752,73.558182 178.119308,67.405334 
	C178.150696,60.873028 180.024139,59.059711 187.261963,58.900536 
M185.828522,62.914085 
	C183.011505,62.678200 182.024017,64.046494 182.071411,66.771339 
	C182.178238,72.911339 182.172058,79.055534 182.074707,85.195847 
	C182.030945,87.955681 183.114990,89.070206 185.904755,89.012939 
	C191.712173,88.893745 197.528366,88.838448 203.331787,89.031670 
	C206.522629,89.137901 207.324936,87.713722 207.270813,84.863365 
	C207.157379,78.889664 207.136429,72.909935 207.278244,66.937447 
	C207.349548,63.934689 206.231476,62.782753 203.207916,62.869457 
	C197.734558,63.026413 192.253464,62.913536 185.828522,62.914085 
z"/>
<path fill="#0B0A0B" opacity="1.000000" stroke="none" 
	d="
M158.771988,93.056168 
	C153.151855,93.055923 148.000229,93.125328 142.851410,93.035065 
	C138.073898,92.951309 135.789017,90.805840 135.702179,86.128983 
	C135.575745,79.319527 135.663467,72.505959 135.671829,65.694160 
	C135.677338,61.219406 137.979965,58.953808 142.407196,58.921535 
	C148.886368,58.874294 155.366165,58.915035 161.845688,58.907650 
	C166.113281,58.902786 168.453232,61.252136 168.586731,65.277557 
	C168.823395,72.413101 168.882568,79.571922 168.575729,86.702057 
	C168.368988,91.506760 165.803848,92.994438 158.771988,93.056168 
M155.420273,88.993996 
	C156.585068,88.994003 157.771103,88.850441 158.910904,89.019249 
	C163.463181,89.693451 165.237076,87.990440 164.893661,83.249298 
	C164.510010,77.952377 164.697052,72.603157 164.847122,67.282669 
	C164.936600,64.109917 163.813431,62.747776 160.515274,62.846798 
	C154.862854,63.016487 149.198395,63.008297 143.545441,62.847736 
	C140.515686,62.761681 139.354919,63.938854 139.407852,66.918633 
	C139.514267,72.907051 139.539337,78.901009 139.400330,84.888092 
	C139.322357,88.246307 140.836365,89.221825 143.963150,89.040237 
	C147.445755,88.837982 150.949158,88.993965 155.420273,88.993996 
z"/>
<path fill="#F8F8F8" opacity="1.000000" stroke="none" 
	d="
M47.008965,81.665375 
	C59.559113,81.665443 59.559292,81.665443 59.558998,93.833382 
	C59.558918,97.158775 59.504421,100.485268 59.572643,103.809242 
	C59.631424,106.673286 58.544994,108.077393 55.463863,108.003304 
	C49.647774,107.863472 43.825081,107.903465 38.006863,107.987846 
	C35.190578,108.028679 34.161514,106.700706 34.188431,104.035194 
	C34.247189,98.216339 34.368477,92.390297 34.146950,86.579277 
	C34.006695,82.900154 35.341324,81.360832 39.036510,81.631363 
	C41.517246,81.812973 44.022068,81.665573 47.008965,81.665375 
z"/>
<path fill="#F8F8F8" opacity="1.000000" stroke="none" 
	d="
M51.945518,124.671585 
	C59.549221,124.688873 59.550556,124.688873 59.553909,131.783279 
	C59.556194,136.608032 59.450413,141.435776 59.589718,146.256500 
	C59.685398,149.567642 58.622475,151.141983 55.006615,150.988739 
	C49.526234,150.756485 44.023750,150.787811 38.540337,150.981339 
	C35.231812,151.098114 34.100384,149.757767 34.172169,146.585907 
	C34.303883,140.765915 34.326809,134.937515 34.163265,129.119141 
	C34.073635,125.930168 35.211845,124.532944 38.476292,124.639069 
	C42.797337,124.779541 47.126434,124.672356 51.945518,124.671585 
z"/>
<path fill="#FDFDFD" opacity="1.000000" stroke="none" 
	d="
M85.252815,107.956741 
	C80.601768,108.534386 78.681938,107.117065 78.980301,102.514900 
	C79.344902,96.891037 79.162888,91.223259 79.027542,85.579033 
	C78.960205,82.771248 80.148445,81.652679 82.835228,81.669617 
	C88.648582,81.706276 94.463608,81.752457 100.275398,81.650131 
	C103.334785,81.596268 104.314819,82.988068 104.246811,85.899208 
	C104.111076,91.709625 104.079697,97.529297 104.255722,103.337563 
	C104.358459,106.727692 103.224426,108.183617 99.675552,108.012222 
	C95.035492,107.788124 90.376457,107.956947 85.252815,107.956741 
z"/>
<path fill="#FDFDFD" opacity="1.000000" stroke="none" 
	d="
M103.965515,126.306023 
	C104.130234,133.416489 104.107010,140.063873 104.230331,146.708557 
	C104.282410,149.514847 103.527161,151.060211 100.313789,150.967102 
	C94.501724,150.798691 88.680038,150.850647 82.864807,150.951096 
	C80.080170,150.999191 78.998734,149.839005 79.040665,147.087448 
	C79.136894,140.773331 78.992485,134.454803 79.149933,128.143143 
	C79.176781,127.067162 80.227158,125.087761 80.786682,125.094185 
	C88.471916,125.182388 96.153984,125.545937 103.965515,126.306023 
z"/>
<path fill="#FDFDFD" opacity="1.000000" stroke="none" 
	d="
M125.018127,147.620239 
	C125.016052,141.166046 125.148529,135.174744 124.961182,129.193436 
	C124.864395,126.103294 125.664474,124.536591 129.064819,124.630608 
	C134.715042,124.786835 140.374390,124.754799 146.026596,124.639946 
	C149.005386,124.579414 150.139297,125.685951 150.042465,128.751511 
	C149.848312,134.898865 149.888580,141.058823 150.027252,147.209167 
	C150.091553,150.061844 148.941986,151.020706 146.194305,150.964249 
	C140.375916,150.844742 134.544891,151.094803 128.739075,150.799713 
	C127.456779,150.734543 126.257584,149.034515 125.018127,147.620239 
z"/>
<path fill="#FDFDFD" opacity="1.000000" stroke="none" 
	d="
M89.062347,194.982574 
	C77.724892,194.864014 79.159019,196.386230 79.066658,185.452271 
	C79.031601,181.302017 79.188370,177.145996 79.018326,173.002426 
	C78.896378,170.030640 79.928505,168.779968 83.009071,168.860931 
	C88.815842,169.013550 94.631760,169.002487 100.439224,168.863998 
	C103.262115,168.796677 104.281754,169.945190 104.242149,172.670059 
	C104.152870,178.811569 104.132568,184.956818 104.248833,191.097427 
	C104.307388,194.190155 102.930634,195.168091 100.006844,195.023148 
	C96.528931,194.850769 93.035942,194.982574 89.062347,194.982574 
z"/>
<path fill="#FFFFFF" opacity="1.000000" stroke="none" 
	d="
M130.202957,168.897232 
	C135.664749,168.897278 140.652298,169.018463 145.630280,168.852753 
	C148.691910,168.750854 150.207764,169.498886 150.061066,172.989151 
	C149.810181,178.958817 149.877289,184.949799 150.040314,190.925552 
	C150.121368,193.896255 149.178909,195.136261 146.069275,195.038696 
	C140.426849,194.861679 134.769409,194.838501 129.128952,195.044464 
	C125.720200,195.168930 124.857040,193.709869 124.957535,190.586975 
	C125.139114,184.944839 125.215645,179.282394 124.935844,173.648315 
	C124.750603,169.918427 126.005646,168.346939 130.202957,168.897232 
z"/>
<path fill="#F4F4F4" opacity="1.000000" stroke="none" 
	d="
M53.306908,56.463028 
	C52.654701,56.197083 52.300240,56.140572 52.043793,55.951271 
	C48.140141,53.069748 48.087486,49.118805 50.037998,45.424023 
	C50.874111,43.840221 53.668697,42.269974 55.435944,42.411419 
	C59.065319,42.701904 59.882843,46.009899 59.769482,49.130413 
	C59.627934,53.026791 58.433598,56.367905 53.306908,56.463028 
z"/>
<path fill="#FDFDFD" opacity="1.000000" stroke="none" 
	d="
M186.302063,62.913700 
	C192.253464,62.913536 197.734558,63.026413 203.207916,62.869457 
	C206.231476,62.782753 207.349548,63.934689 207.278244,66.937447 
	C207.136429,72.909935 207.157379,78.889664 207.270813,84.863365 
	C207.324936,87.713722 206.522629,89.137901 203.331787,89.031670 
	C197.528366,88.838448 191.712173,88.893745 185.904755,89.012939 
	C183.114990,89.070206 182.030945,87.955681 182.074707,85.195847 
	C182.172058,79.055534 182.178238,72.911339 182.071411,66.771339 
	C182.024017,64.046494 183.011505,62.678200 186.302063,62.913700 
z"/>
<path fill="#F8F8F8" opacity="1.000000" stroke="none" 
	d="
M154.931885,88.993996 
	C150.949158,88.993965 147.445755,88.837982 143.963150,89.040237 
	C140.836365,89.221825 139.322357,88.246307 139.400330,84.888092 
	C139.539337,78.901009 139.514267,72.907051 139.407852,66.918633 
	C139.354919,63.938854 140.515686,62.761681 143.545441,62.847736 
	C149.198395,63.008297 154.862854,63.016487 160.515274,62.846798 
	C163.813431,62.747776 164.936600,64.109917 164.847122,67.282669 
	C164.697052,72.603157 164.510010,77.952377 164.893661,83.249298 
	C165.237076,87.990440 163.463181,89.693451 158.910904,89.019249 
	C157.771103,88.850441 156.585068,88.994003 154.931885,88.993996 
z"/>
</svg>